<?xml version="1.0" encoding="iso-8859-1"?>
<!-- Generator: Adobe Illustrator 18.1.1, SVG Export Plug-In . SVG Version: 6.00 Build 0)  -->
<svg version="1.1" id="Capa_1" xmlns="http://www.w3.org/2000/svg" xmlns:xlink="http://www.w3.org/1999/xlink" x="0px" y="0px"
	 viewBox="0 0 207.814 207.814" style="enable-background:new 0 0 207.814 207.814;" xml:space="preserve">
<g>
	<g>
		<path style="fill:#ffffff;" d="M166.193,122.881c0.587-6.757-1.027-12.469-4.806-16.996c-5.64-6.743-14.301-8.797-18.048-9.394
			c-2.323-5.93-5.884-9.835-10.586-11.595c-1.822-0.68-3.804-1.027-5.891-1.027c-3.643,0-6.914,1.027-9.137,1.961
			c-2.831-5.272-6.621-8.532-11.277-9.706c-1.263-0.315-2.591-0.483-3.947-0.483c-4.57,0-8.736,1.782-11.606,3.411
			c-0.97-6.08-2.273-21.852-3.235-33.487l-0.007-0.129c-2.079-25.245-2.734-31.863-3.815-33.684
			C82.513,7.119,76.894,0.391,71.121,0.391c-0.161,0-0.319,0-0.472,0.007c-3.862,0.24-8.725,3.454-9.992,17.486
			c0,50.666-1.417,87.864-1.736,95.591c-4.484,1.943-8.65,6.642-9.108,7.179c-14.19,15.675-7.523,27.171-7.236,27.643
			c10.994,19.243,33.774,57.247,33.97,57.573l0.247,0.408l3.862-2.305l-0.315-0.523c-2.376-3.955-23.481-39.21-33.87-57.401
			c-0.222-0.376-5.186-9.28,6.718-22.418c1.27-1.485,5.279-5.519,8.503-6.374l1.589-0.429l0.075-1.639
			c0.018-0.308,1.807-39.392,1.797-97.098C65.885,10,68.047,5.069,70.917,4.893L71.05,4.89c3.482,0,7.873,5.272,8.561,8.446
			l0.319,1.507l0.233,0.036c0.795,4.141,2.018,18.961,3.006,30.928c3.16,38.125,3.561,38.247,5.787,38.913l1.106,0.326l0.909-0.705
			c0.576-0.429,5.823-4.194,11.538-4.194c0.988,0,1.943,0.111,2.856,0.336c3.833,0.973,6.961,4.087,9.284,9.251l1.013,2.276
			l2.162-1.253c0.043-0.018,4.252-2.387,9.04-2.387c1.55,0,3.003,0.247,4.32,0.741c3.726,1.392,6.553,4.806,8.4,10.16l0.476,1.381
			l1.457,0.129c0.437,0.039,10.708,1.142,16.427,7.977c3.021,3.615,4.28,8.285,3.765,13.89l-0.021,0.301l0.021,0.179
			c0.208,1.686,4.71,41.583-10.11,69.97l-3.84,12.959l4.316,1.278l3.675-12.562C170.721,166.167,166.702,127.14,166.193,122.881z"/>
		<path style="fill:#ffffff;" d="M152.318,207.814l-5.053-1.496l3.951-13.331c14.788-28.345,10.304-68.131,10.103-69.809
			l-0.025-0.168l0.018-0.379c0.512-5.515-0.727-10.089-3.679-13.618c-5.655-6.782-16.062-7.838-16.162-7.845l-1.7-0.154
			l-0.562-1.614c-1.807-5.236-4.552-8.575-8.171-9.928c-1.27-0.476-2.681-0.716-4.184-0.716c-4.581,0-8.686,2.244-8.858,2.337
			l-2.523,1.464l-1.192-2.666c-2.269-5.057-5.304-8.103-9.029-9.033c-0.859-0.218-1.793-0.333-2.759-0.333
			c-5.63,0-10.74,3.704-11.306,4.126l-1.063,0.812l-1.288-0.376c-2.505-0.748-2.892-0.866-6.059-39.249
			c-0.97-11.678-2.162-26.151-2.96-30.624L79.6,15.182l-0.376-1.764c-0.641-2.988-4.932-8.142-8.185-8.142L70.917,5.28
			c-2.62,0.157-4.695,5.082-5.404,12.852c0.018,57.773-1.772,96.779-1.793,97.08l-0.082,1.918l-1.861,0.501
			c-3.131,0.827-7.061,4.792-8.31,6.252c-11.706,12.927-6.889,21.613-6.678,21.978c10.404,18.198,31.497,53.439,33.87,57.394
			l0.515,0.852l-4.52,2.702l-0.447-0.737c-0.211-0.347-22.962-38.304-33.974-57.584c-0.297-0.48-7.125-12.172,7.283-28.087
			c0.451-0.523,4.542-5.143,9.022-7.183c0.311-7.587,1.729-44.886,1.729-95.333C61.555,3.558,66.605,0.262,70.613,0.019
			c6.066-0.433,12.154,6.707,13.571,11.578c1.113,1.958,1.772,8.682,3.84,33.809l0.007,0.129
			c0.931,11.227,2.194,26.483,3.157,32.908c2.774-1.507,6.85-3.185,11.306-3.185c1.392,0,2.756,0.168,4.041,0.494
			c4.678,1.177,8.496,4.402,11.356,9.591c2.165-0.873,5.39-1.857,8.965-1.857c2.133,0,4.159,0.354,6.027,1.052
			c4.76,1.782,8.364,5.683,10.729,11.61c3.711,0.612,12.408,2.724,18.07,9.488c3.84,4.61,5.486,10.418,4.885,17.282
			c0.519,4.262,4.61,43.19-10.493,72.042L152.318,207.814z M148.224,205.803l3.582,1.063l3.565-12.197
			c15.028-28.713,10.955-67.426,10.44-71.738c0.576-6.732-1.009-12.354-4.717-16.796c-5.601-6.707-14.323-8.715-17.812-9.262
			l-0.215-0.032l-0.086-0.211c-2.276-5.823-5.766-9.652-10.364-11.374c-1.775-0.662-3.715-1.006-5.751-1.006
			c-3.633,0-6.893,1.052-8.987,1.936l-0.322,0.143l-0.168-0.319c-2.774-5.168-6.488-8.367-11.034-9.516
			c-1.228-0.308-2.527-0.465-3.854-0.465c-4.552,0-8.722,1.829-11.417,3.357l-0.48,0.276l-0.089-0.548
			c-0.973-6.091-2.287-21.942-3.239-33.516l-0.007-0.132c-2.072-25.213-2.738-31.787-3.754-33.516l-0.039-0.089
			C82.173,7.348,76.719,0.785,71.125,0.785c-0.154,0-0.301,0-0.451,0.007c-3.711,0.225-8.392,3.386-9.627,17.139
			c0,50.981-1.446,88.552-1.736,95.566l-0.004,0.236l-0.222,0.097c-4.413,1.915-8.525,6.56-8.979,7.083
			c-14.029,15.5-7.483,26.72-7.193,27.185c11.012,19.286,33.759,57.229,33.974,57.577l0.043,0.086l3.203-1.918l-0.122-0.19
			c-2.366-3.958-23.467-39.206-33.874-57.412c-0.218-0.379-5.3-9.53,6.768-22.869c1.288-1.5,5.372-5.604,8.693-6.488l1.317-0.351
			l0.057-1.36c0.021-0.322,1.811-39.045,1.797-97.083c0.762-8.457,3.003-13.392,6.127-13.582l0.15-0.007
			c3.765,0,8.235,5.454,8.944,8.75l0.265,1.245l0.236,0.039l0.05,0.265c0.805,4.177,2.029,19.036,3.013,30.971
			c3.035,36.705,3.511,37.975,5.511,38.573l0.913,0.265l0.752-0.583c0.591-0.44,5.905-4.277,11.778-4.277
			c1.027,0,2.015,0.118,2.945,0.358c3.962,0.998,7.168,4.18,9.541,9.462l0.841,1.893l1.8-1.041c0.455-0.254,4.538-2.437,9.23-2.437
			c1.596,0,3.096,0.251,4.452,0.762c3.84,1.428,6.743,4.928,8.629,10.397l0.394,1.145l1.21,0.104
			c0.44,0.047,10.819,1.102,16.688,8.12c3.085,3.69,4.381,8.457,3.844,14.165l-0.018,0.293l0.025,0.097
			c0.204,1.704,4.713,41.722-10.153,70.199L148.224,205.803z"/>
	</g>
</g>
<g>
</g>
<g>
</g>
<g>
</g>
<g>
</g>
<g>
</g>
<g>
</g>
<g>
</g>
<g>
</g>
<g>
</g>
<g>
</g>
<g>
</g>
<g>
</g>
<g>
</g>
<g>
</g>
<g>
</g>
</svg>
